<?xml version="1.0" encoding="utf-8"?>
<!-- Generator: Adobe Illustrator 19.0.0, SVG Export Plug-In . SVG Version: 6.00 Build 0)  -->
<svg version="1.1" id="Capa_1" xmlns="http://www.w3.org/2000/svg" xmlns:xlink="http://www.w3.org/1999/xlink" x="0px" y="0px"
	 viewBox="0 0 33 39" style="enable-background:new 0 0 33 39;" xml:space="preserve">
<style type="text/css">
	.st0{clip-path:url(#XMLID_70_);fill:#FFFFFF;}
	.st1{clip-path:url(#XMLID_71_);fill:#FFFFFF;}
	.st2{clip-path:url(#XMLID_72_);fill:#CD1719;}
	.st3{clip-path:url(#XMLID_72_);fill:none;stroke:#FFFFFF;stroke-width:1.246;stroke-miterlimit:10;}
	.st4{clip-path:url(#XMLID_73_);fill:#FFFFFF;}
</style>
<g id="XMLID_3_">
	<defs>
		<rect id="XMLID_4_" x="-3" width="36" height="39.8"/>
	</defs>
	<clipPath id="XMLID_70_">
		<use xlink:href="#XMLID_4_"  style="overflow:visible;"/>
	</clipPath>
	<path id="XMLID_17_" class="st0" d="M19.8,8.3c-1,0-1.9,0.4-2.5,1.1c-0.1,0.1-0.2,0.1-0.3,0.1c-0.1,0-0.2,0-0.3-0.1
		c-0.6-0.7-1.6-1.1-2.5-1.1c-2,0-3.5,1.6-3.5,3.5c0,1.7,1.2,3.1,2.8,3.5v0.3c0,0.2-0.2,0.4-0.4,0.4h-1.1c-0.2,0-0.4-0.2-0.4-0.4
		c0-0.2-0.2-0.4-0.4-0.4H9.7c-0.2,0-0.4,0.2-0.4,0.4v3.1c0,0.2,0.2,0.4,0.4,0.4H11c0.2,0,0.4-0.2,0.4-0.4c0-0.2,0.2-0.4,0.4-0.4h1.1
		c0.2,0,0.4,0.2,0.4,0.4v0.7c0,0.2,0.2,0.4,0.4,0.4H15c0.2,0,0.3,0.1,0.4,0.3c0.1,0.2,0,0.4-0.1,0.5l-1.5,1.5
		c-0.2,0.2-0.2,0.4,0,0.6l0.2,0.2c0.2,0.2,0.5,0.2,0.6,0l1.2-1.2c0.1-0.1,0.3-0.2,0.5-0.1c0.2,0.1,0.3,0.2,0.3,0.4v1.6
		c0,0.2,0.2,0.4,0.4,0.4h0.3c0.2,0,0.4-0.2,0.4-0.4v-1.6c0-0.2,0.1-0.3,0.3-0.4c0.2-0.1,0.4,0,0.5,0.1l1.2,1.2
		c0.2,0.2,0.4,0.2,0.6,0l0.2-0.2c0.2-0.2,0.2-0.4,0-0.6l-1.5-1.5c-0.1-0.1-0.2-0.3-0.1-0.5c0.1-0.2,0.2-0.3,0.4-0.3h1.4
		c0.2,0,0.4-0.2,0.4-0.4v-4c0-0.2,0.1-0.3,0.2-0.4c1.2-0.6,2-1.8,2-3.2C23.4,9.9,21.8,8.3,19.8,8.3"/>
</g>
<g id="XMLID_18_">
	<defs>
		<rect id="XMLID_19_" x="-1" y="1.9" width="31.9" height="35.2"/>
	</defs>
	<clipPath id="XMLID_71_">
		<use xlink:href="#XMLID_19_"  style="overflow:visible;"/>
	</clipPath>
	<path id="XMLID_20_" class="st1" d="M19.3,9.3c-0.9,0-1.7,0.4-2.3,0.9c-0.1,0.1-0.2,0.1-0.3,0.1c-0.1,0-0.2,0-0.3-0.1
		c-0.6-0.6-1.4-0.9-2.3-0.9c-1.7,0-3.1,1.4-3.1,3.1c0,1.5,1.1,2.8,2.5,3.1v0.3c0,0.2-0.2,0.4-0.4,0.4h-0.9c-0.2,0-0.4-0.2-0.4-0.4
		c0-0.2-0.2-0.4-0.4-0.4h-1.1c-0.2,0-0.4,0.2-0.4,0.4v2.7c0,0.2,0.2,0.4,0.4,0.4h1.1c0.2,0,0.4-0.2,0.4-0.4c0-0.2,0.2-0.4,0.4-0.4
		h0.9c0.2,0,0.4,0.2,0.4,0.4v0.6c0,0.2,0.2,0.4,0.4,0.4h1c0.2,0,0.3,0.1,0.4,0.2c0.1,0.2,0,0.3-0.1,0.4l-1.4,1.4
		c-0.2,0.1-0.2,0.4,0,0.5l0.2,0.2c0.2,0.2,0.4,0.2,0.6,0l1-1c0.1-0.1,0.3-0.1,0.4-0.1c0.1,0.1,0.2,0.2,0.2,0.4V23
		c0,0.2,0.2,0.4,0.4,0.4H17c0.2,0,0.4-0.2,0.4-0.4v-1.4c0-0.2,0.1-0.3,0.2-0.4c0.2-0.1,0.3,0,0.4,0.1l1,1c0.2,0.2,0.4,0.2,0.5,0
		l0.2-0.2c0.2-0.1,0.2-0.4,0-0.5l-1.3-1.3c-0.1-0.1-0.2-0.3-0.1-0.4c0.1-0.1,0.2-0.2,0.4-0.2H20c0.2,0,0.4-0.2,0.4-0.4v-3.6
		c0-0.2,0.1-0.3,0.2-0.4c1.1-0.5,1.8-1.6,1.8-2.8C22.4,10.7,21,9.3,19.3,9.3"/>
</g>
<g id="XMLID_52_">
	<defs>
		<rect id="XMLID_53_" x="-1" y="1.9" width="31.9" height="35.2"/>
	</defs>
	<clipPath id="XMLID_72_">
		<use xlink:href="#XMLID_53_"  style="overflow:visible;"/>
	</clipPath>
	<path id="XMLID_55_" class="st2" d="M30.4,16.3c0-7.7-6.2-13.9-13.9-13.9C8.8,2.4,2.6,8.6,2.6,16.3c0,5.1,2.8,9.6,6.9,12l0,8.6
		l7.9-6.7C24.7,29.7,30.4,23.6,30.4,16.3"/>
	<path id="XMLID_54_" class="st3" d="M30.4,16.3c0-7.7-6.2-13.9-13.9-13.9C8.8,2.4,2.6,8.6,2.6,16.3c0,5.1,2.8,9.6,6.9,12l0,8.6
		l7.9-6.7C24.7,29.7,30.4,23.6,30.4,16.3z"/>
</g>
<g id="XMLID_46_">
	<defs>
		<rect id="XMLID_47_" x="-1" y="1.9" width="31.9" height="35.2"/>
	</defs>
	<clipPath id="XMLID_73_">
		<use xlink:href="#XMLID_47_"  style="overflow:visible;"/>
	</clipPath>
	<path id="XMLID_49_" class="st4" d="M21.7,19.4C21.7,19.4,21.7,19.4,21.7,19.4c0.5,0.8,1.3,1.4,1.7,2.1c0.1,0.1,0.2,0.3,0.2,0.4
		c0.3,0.7,0.2,1.6-0.3,2.3c-0.1,0.2-0.3,0.4-0.5,0.5C22.5,25,22,25.1,21.6,25c-0.4-0.1-0.6-0.4-0.9-0.7c-0.1-0.1-0.1-0.2-0.2-0.3
		c0.1-0.1,0.1-0.2,0-0.3L20,22.8c0.6-0.6,0.8-1.6,0.3-2.4l-3.2,2.1c0.5,0.8,1.4,1,2.2,0.8l0.5,0.8c0.1,0.1,0.3,0.2,0.4,0.1
		c0.1,0.1,0.1,0.2,0.2,0.3c0.2,0.4,0.6,0.7,1,0.9c0.6,0.2,1.1,0,1.6-0.3c0.2-0.2,0.5-0.4,0.6-0.6c0.5-0.8,0.7-1.8,0.3-2.6
		c-0.1-0.2-0.2-0.3-0.3-0.5c-0.5-0.8-1.3-1.4-1.7-2.1l0,0c-0.7-1.1-1-2.5-0.4-3.7l-0.3-0.2C20.6,16.7,20.9,18.3,21.7,19.4
		 M11.5,15.2l5.3,6.8L20,20l-4-7.7c-0.2,1-0.8,1.8-1.7,2.4C13.4,15.2,12.4,15.4,11.5,15.2"/>
	<path id="XMLID_48_" class="st4" d="M15.6,11c0,2.1-1.7,3.7-3.7,3.7c-2.1,0-3.7-1.7-3.7-3.7c0-2.1,1.7-3.7,3.7-3.7
		C13.9,7.2,15.6,8.9,15.6,11"/>
</g>
</svg>
